<svg xmlns="http://www.w3.org/2000/svg" width="9" height="10" viewBox="0 0 9 10">
    <path fill="#2F303F" fill-rule="evenodd" d="M7.383 4.74V2.1H1.062V4.74h6.321zM6.6 7.902c.22 0 .405-.075.556-.227a.772.772 0 0 0 .228-.57.768.768 0 0 0-.784-.784.778.778 0 0 0-.562.229.746.746 0 0 0-.234.556c0 .22.076.407.227.563a.761.761 0 0 0 .57.233zm-4.74 0c.219 0 .404-.075.556-.227a.772.772 0 0 0 .227-.57.768.768 0 0 0-.784-.784.778.778 0 0 0-.562.229.746.746 0 0 0-.234.556c0 .22.076.407.228.563a.761.761 0 0 0 .568.233zM0 7.358v-5.26c0-.59.194-1.044.582-1.365.337-.286.842-.489 1.517-.607C2.62.042 3.329 0 4.223 0c.893 0 1.6.042 2.123.126.675.118 1.18.32 1.517.607.388.32.582.776.582 1.366v5.259c0 .227-.05.446-.152.657-.092.194-.223.371-.392.531v.936a.5.5 0 0 1-.151.366.5.5 0 0 1-.367.152h-.518a.543.543 0 0 1-.38-.152.481.481 0 0 1-.164-.366v-.544H2.124v.544a.49.49 0 0 1-.158.366.536.536 0 0 1-.386.152h-.518a.5.5 0 0 1-.367-.152.5.5 0 0 1-.151-.366v-.936c-.169-.16-.3-.337-.392-.53A1.502 1.502 0 0 1 0 7.357z" opacity=".5"/>
</svg>
