<svg xmlns="http://www.w3.org/2000/svg" width="11" height="11" viewBox="0 0 11 11">
    <g fill="none" fill-rule="evenodd">
        <path fill="#2F303F" d="M5.5 0c.76 0 1.473.143 2.143.43a5.52 5.52 0 0 1 1.751 1.176 5.52 5.52 0 0 1 1.176 1.75c.287.67.43 1.385.43 2.144a5.39 5.39 0 0 1-.43 2.143 5.52 5.52 0 0 1-1.176 1.751 5.52 5.52 0 0 1-1.75 1.176A5.39 5.39 0 0 1 5.5 11a5.39 5.39 0 0 1-2.143-.43 5.52 5.52 0 0 1-1.751-1.176A5.52 5.52 0 0 1 .43 7.644 5.39 5.39 0 0 1 0 5.5c0-.76.143-1.473.43-2.143a5.52 5.52 0 0 1 1.176-1.751A5.52 5.52 0 0 1 3.356.43 5.39 5.39 0 0 1 5.5 0zm0 10.323c.666 0 1.29-.127 1.875-.381A4.857 4.857 0 0 0 9.93 7.375a4.642 4.642 0 0 0 .382-1.875c0-.666-.128-1.29-.382-1.875A4.903 4.903 0 0 0 8.9 2.1 4.903 4.903 0 0 0 7.375 1.07 4.642 4.642 0 0 0 5.5.688c-.666 0-1.29.127-1.875.38A4.903 4.903 0 0 0 2.1 2.1 4.903 4.903 0 0 0 1.07 3.625 4.642 4.642 0 0 0 .688 5.5c0 .666.127 1.29.38 1.875a4.857 4.857 0 0 0 2.557 2.567 4.642 4.642 0 0 0 1.875.381zM5.5 8a2.5 2.5 0 1 0 0-5 2.5 2.5 0 0 0 0 5z"/>
        <circle cx="5.5" cy="5.5" r="2.5" fill="#D22727" fill-rule="nonzero"/>
    </g>
</svg>
