<svg xmlns="http://www.w3.org/2000/svg" width="13" height="15" viewBox="0 0 13 15">
    <g fill="none" fill-rule="evenodd">
        <path d="M-6-5h24v24H-6z"/>
        <path fill="#2F303F" d="M11.075 7.111V3.148H1.593V7.11h9.482zm-1.176 4.741c.329 0 .607-.114.834-.341.228-.228.342-.512.342-.854a1.152 1.152 0 0 0-1.176-1.176c-.329 0-.61.114-.844.342a1.12 1.12 0 0 0-.35.834c0 .33.113.61.34.844.228.234.513.351.854.351zm-7.111 0c.328 0 .606-.114.834-.341.228-.228.341-.512.341-.854a1.152 1.152 0 0 0-1.176-1.176c-.328 0-.61.114-.843.342a1.12 1.12 0 0 0-.351.834c0 .33.114.61.341.844.228.234.512.351.854.351zM0 11.037v-7.89C0 2.264.29 1.58.872 1.1 1.378.67 2.137.367 3.148.19 3.932.063 4.994 0 6.334 0c1.34 0 2.402.063 3.186.19 1.011.177 1.77.48 2.275.91.582.48.873 1.163.873 2.048v7.889c0 .341-.076.67-.228.986-.14.29-.335.556-.588.796v1.404a.75.75 0 0 1-.227.55.75.75 0 0 1-.55.227h-.778a.814.814 0 0 1-.569-.228.721.721 0 0 1-.246-.55v-.815H3.186v.816a.734.734 0 0 1-.237.55.804.804 0 0 1-.579.227h-.777a.75.75 0 0 1-.55-.228.75.75 0 0 1-.228-.55V12.82a2.708 2.708 0 0 1-.587-.796A2.253 2.253 0 0 1 0 11.037z"/>
    </g>
</svg>
