<svg xmlns="http://www.w3.org/2000/svg" width="19" height="19" viewBox="0 0 19 19">
    <g fill="none" fill-rule="evenodd">
        <path d="M-3-3h24v24H-3z"/>
        <path fill="#2F303F" d="M10.436 6.645V4.727H8.564v1.918h1.872zm0 7.628v-5.71H8.564v5.71h1.872zM9.5 0c1.736 0 3.342.434 4.819 1.302a9.004 9.004 0 0 1 3.38 3.38A9.343 9.343 0 0 1 19 9.5a9.343 9.343 0 0 1-1.302 4.819 9.004 9.004 0 0 1-3.38 3.38A9.343 9.343 0 0 1 9.5 19a9.343 9.343 0 0 1-4.819-1.302 9.174 9.174 0 0 1-3.38-3.402A9.301 9.301 0 0 1 0 9.5c0-1.72.434-3.319 1.302-4.796a9.35 9.35 0 0 1 3.402-3.402A9.301 9.301 0 0 1 9.5 0z"/>
    </g>
</svg>
