<svg xmlns="http://www.w3.org/2000/svg" width="9" height="12" viewBox="0 0 9 12">
    <g fill="none" fill-rule="evenodd">
        <path d="M-8-6h24v24H-8z"/>
        <path fill="#FFF" d="M4.197 5.683a1.516 1.516 0 0 0 1.298-.743c.135-.226.202-.474.202-.743a1.498 1.498 0 0 0-1.5-1.5c-.27 0-.517.067-.743.202a1.516 1.516 0 0 0-.742 1.298c0 .414.144.765.432 1.053.289.288.64.433 1.053.433zm0-5.683c.77 0 1.476.187 2.12.563.635.375 1.14.88 1.515 1.514a4.14 4.14 0 0 1 .562 2.12c0 .587-.144 1.26-.432 2.02a14.49 14.49 0 0 1-1.039 2.09 27.588 27.588 0 0 1-1.255 1.861c-.327.452-.673.894-1.038 1.327L4.197 12l-.433-.505a22.465 22.465 0 0 1-1.038-1.327 27.588 27.588 0 0 1-1.255-1.86A14.49 14.49 0 0 1 .433 6.216C.144 5.456 0 4.784 0 4.197c0-.77.187-1.476.563-2.12.375-.635.88-1.14 1.514-1.514A4.14 4.14 0 0 1 4.197 0z"/>
    </g>
</svg>
