<svg xmlns="http://www.w3.org/2000/svg" xmlns:xlink="http://www.w3.org/1999/xlink" width="206" height="206" viewBox="0 0 206 206">
    <defs>
        <linearGradient id="a" x1="50%" x2="50%" y1="0%" y2="100%">
            <stop offset="0%" stop-color="#00E9A0"/>
            <stop offset="100%" stop-color="#00C3FF"/>
        </linearGradient>
        <circle id="b" cx="80" cy="80" r="80"/>
    </defs>
    <g fill="none" fill-rule="evenodd" transform="translate(3 3)">
        <circle cx="100" cy="100" r="100" stroke="#F8FBFD" stroke-width="6"/>
        <path stroke="url(#a)" stroke-width="6" d="M188.675 146.27C195.909 132.434 200 116.695 200 100c0-28.575-11.985-54.35-31.202-72.574C150.872 10.428 126.654 0 100 0"/>
        <g transform="translate(20 20)">
            <mask id="c" fill="#fff">
                <use xlink:href="#b"/>
            </mask>
            <use fill="#FFF" fill-rule="nonzero" xlink:href="#b"/>
            <g mask="url(#c)">
                <path stroke="#38384D" d="M68 54h304.027M68 107h304.027" opacity=".08"/>
                <text fill="#2F303F" font-family="BarlowSemiCondensed-Regular, Barlow Semi Condensed" font-size="14" font-style="condensed" font-weight="500" transform="translate(28 15)">
                    <tspan x="40" y="15">Balderas</tspan>
                </text>
                <path d="M28 15h24v24H28z"/>
                <path fill="#2F303F" d="M44.598 27.163v-3.435h-8.217v3.435h8.217zm-1.019 4.109a.984.984 0 0 0 .723-.296c.197-.197.296-.444.296-.74a.998.998 0 0 0-1.019-1.019c-.285 0-.529.1-.731.296a.97.97 0 0 0-.304.723c0 .285.098.53.295.732a.99.99 0 0 0 .74.304zm-6.163 0a.984.984 0 0 0 .723-.296c.197-.197.296-.444.296-.74a.998.998 0 0 0-1.019-1.019c-.285 0-.529.1-.731.296a.97.97 0 0 0-.304.723c0 .285.098.53.295.732a.99.99 0 0 0 .74.304zM35 30.565v-6.837c0-.767.252-1.358.756-1.775.438-.372 1.096-.635 1.972-.789.68-.11 1.6-.164 2.761-.164 1.162 0 2.082.055 2.761.164.877.154 1.534.417 1.973.79.504.416.756 1.007.756 1.774v6.837c0 .296-.066.58-.198.855-.12.252-.29.482-.51.69v1.216a.65.65 0 0 1-.196.477.65.65 0 0 1-.477.197h-.674a.705.705 0 0 1-.493-.197.625.625 0 0 1-.214-.477v-.707h-5.456v.707a.637.637 0 0 1-.205.477.697.697 0 0 1-.502.197h-.673a.65.65 0 0 1-.477-.197.65.65 0 0 1-.197-.477V32.11a2.347 2.347 0 0 1-.51-.69 1.952 1.952 0 0 1-.197-.855z"/>
                <g opacity=".3">
                    <text fill="#2F303F" font-family="BarlowSemiCondensed-Regular, Barlow Semi Condensed" font-size="14" font-style="condensed" font-weight="500" transform="translate(28 68)">
                        <tspan x="40" y="15">Vértiz</tspan>
                    </text>
                    <path d="M28 68h24v24H28z"/>
                    <path fill="#2F303F" d="M44.598 80.163v-3.435h-8.217v3.435h8.217zm-1.019 4.109a.984.984 0 0 0 .723-.296c.197-.197.296-.444.296-.74a.998.998 0 0 0-1.019-1.019c-.285 0-.529.1-.731.296a.97.97 0 0 0-.304.723c0 .285.098.53.295.732a.99.99 0 0 0 .74.304zm-6.163 0a.984.984 0 0 0 .723-.296c.197-.197.296-.444.296-.74a.998.998 0 0 0-1.019-1.019c-.285 0-.529.1-.731.296a.97.97 0 0 0-.304.723c0 .285.098.53.295.732a.99.99 0 0 0 .74.304zM35 83.565v-6.837c0-.767.252-1.358.756-1.775.438-.372 1.096-.635 1.972-.789.68-.11 1.6-.164 2.761-.164 1.162 0 2.082.055 2.761.164.877.154 1.534.417 1.973.79.504.416.756 1.007.756 1.774v6.837c0 .296-.066.58-.198.855-.12.252-.29.482-.51.69v1.216a.65.65 0 0 1-.196.477.65.65 0 0 1-.477.197h-.674a.705.705 0 0 1-.493-.197.625.625 0 0 1-.214-.477v-.707h-5.456v.707a.637.637 0 0 1-.205.477.697.697 0 0 1-.502.197h-.673a.65.65 0 0 1-.477-.197.65.65 0 0 1-.197-.477V85.11a2.347 2.347 0 0 1-.51-.69 1.952 1.952 0 0 1-.197-.855z"/>
                </g>
                <g opacity=".3">
                    <text fill="#2F303F" font-family="BarlowSemiCondensed-Regular, Barlow Semi Condensed" font-size="14" font-style="condensed" font-weight="500" transform="translate(28 121)">
                        <tspan x="40" y="15">Atenea</tspan>
                    </text>
                    <path d="M28 122h24v24H28z"/>
                    <path fill="#2F303F" d="M44.598 134.163v-3.435h-8.217v3.435h8.217zm-1.019 4.109a.984.984 0 0 0 .723-.296c.197-.197.296-.444.296-.74a.998.998 0 0 0-1.019-1.019c-.285 0-.529.1-.731.296a.97.97 0 0 0-.304.723c0 .285.098.53.295.732a.99.99 0 0 0 .74.304zm-6.163 0a.984.984 0 0 0 .723-.296c.197-.197.296-.444.296-.74a.998.998 0 0 0-1.019-1.019c-.285 0-.529.1-.731.296a.97.97 0 0 0-.304.723c0 .285.098.53.295.732a.99.99 0 0 0 .74.304zM35 137.565v-6.837c0-.767.252-1.358.756-1.775.438-.372 1.096-.635 1.972-.789.68-.11 1.6-.164 2.761-.164 1.162 0 2.082.055 2.761.164.877.154 1.534.417 1.973.79.504.416.756 1.007.756 1.774v6.837c0 .296-.066.58-.198.855-.12.252-.29.482-.51.69v1.216a.65.65 0 0 1-.196.477.65.65 0 0 1-.477.197h-.674a.705.705 0 0 1-.493-.197.625.625 0 0 1-.214-.477v-.707h-5.456v.707a.637.637 0 0 1-.205.477.697.697 0 0 1-.502.197h-.673a.65.65 0 0 1-.477-.197.65.65 0 0 1-.197-.477v-1.216a2.347 2.347 0 0 1-.51-.69 1.952 1.952 0 0 1-.197-.855z"/>
                </g>
            </g>
        </g>
    </g>
</svg>
